<mxfile host="app.diagrams.net" modified="2024-07-15T05:51:56.502Z" agent="Mozilla/5.0 (Windows NT 10.0; Win64; x64) AppleWebKit/537.36 (KHTML, like Gecko) Chrome/126.0.0.0 Safari/537.36 Edg/126.0.0.0" etag="Da3v8ltqe6t7aQa1rgAf" version="24.6.4" type="github">
  <diagram id="C5RBs43oDa-KdzZeNtuy" name="Page-1">
    <mxGraphModel dx="792" dy="434" grid="1" gridSize="10" guides="1" tooltips="1" connect="1" arrows="1" fold="1" page="1" pageScale="1" pageWidth="827" pageHeight="1169" math="0" shadow="0">
      <root>
        <mxCell id="WIyWlLk6GJQsqaUBKTNV-0" />
        <mxCell id="WIyWlLk6GJQsqaUBKTNV-1" parent="WIyWlLk6GJQsqaUBKTNV-0" />
        <mxCell id="vuq5tWxMH5w9Z1f-DrI8-20" style="edgeStyle=orthogonalEdgeStyle;rounded=0;orthogonalLoop=1;jettySize=auto;html=1;exitX=1;exitY=0.5;exitDx=0;exitDy=0;entryX=0.5;entryY=0;entryDx=0;entryDy=0;" edge="1" parent="WIyWlLk6GJQsqaUBKTNV-1" source="vuq5tWxMH5w9Z1f-DrI8-7" target="vuq5tWxMH5w9Z1f-DrI8-19">
          <mxGeometry relative="1" as="geometry">
            <mxPoint x="500" y="220" as="targetPoint" />
          </mxGeometry>
        </mxCell>
        <mxCell id="vuq5tWxMH5w9Z1f-DrI8-22" value="失败" style="edgeLabel;html=1;align=center;verticalAlign=middle;resizable=0;points=[];fontSize=10;" vertex="1" connectable="0" parent="vuq5tWxMH5w9Z1f-DrI8-20">
          <mxGeometry x="-0.3019" y="-2" relative="1" as="geometry">
            <mxPoint x="-8" y="-2" as="offset" />
          </mxGeometry>
        </mxCell>
        <mxCell id="vuq5tWxMH5w9Z1f-DrI8-7" value="&lt;font style=&quot;font-size: 10px;&quot;&gt;请求结果&lt;/font&gt;" style="rhombus;whiteSpace=wrap;html=1;rounded=0;shadow=0;labelBackgroundColor=none;strokeWidth=1;fontFamily=Verdana;fontSize=12;align=center;strokeColor=#d79b00;fillColor=#ffe6cc;textShadow=1;" vertex="1" parent="WIyWlLk6GJQsqaUBKTNV-1">
          <mxGeometry x="340" y="160" width="95" height="46.07" as="geometry" />
        </mxCell>
        <mxCell id="vuq5tWxMH5w9Z1f-DrI8-12" value="" style="edgeStyle=orthogonalEdgeStyle;rounded=0;orthogonalLoop=1;jettySize=auto;html=1;" edge="1" parent="WIyWlLk6GJQsqaUBKTNV-1" source="vuq5tWxMH5w9Z1f-DrI8-9" target="vuq5tWxMH5w9Z1f-DrI8-11">
          <mxGeometry relative="1" as="geometry" />
        </mxCell>
        <mxCell id="vuq5tWxMH5w9Z1f-DrI8-9" value="&lt;font style=&quot;font-size: 10px;&quot;&gt;共享请求拦截器&lt;/font&gt;" style="rounded=0;html=1;shadow=0;labelBackgroundColor=none;strokeWidth=1;fontFamily=Verdana;fontSize=12;align=center;strokeColor=#6c8ebf;fillColor=#dae8fc;verticalAlign=middle;" vertex="1" parent="WIyWlLk6GJQsqaUBKTNV-1">
          <mxGeometry x="340" y="60" width="95" height="23" as="geometry" />
        </mxCell>
        <mxCell id="vuq5tWxMH5w9Z1f-DrI8-14" style="edgeStyle=orthogonalEdgeStyle;rounded=0;orthogonalLoop=1;jettySize=auto;html=1;exitX=0.5;exitY=1;exitDx=0;exitDy=0;entryX=0.5;entryY=0;entryDx=0;entryDy=0;" edge="1" parent="WIyWlLk6GJQsqaUBKTNV-1" source="vuq5tWxMH5w9Z1f-DrI8-11" target="vuq5tWxMH5w9Z1f-DrI8-7">
          <mxGeometry relative="1" as="geometry" />
        </mxCell>
        <mxCell id="vuq5tWxMH5w9Z1f-DrI8-11" value="&lt;font style=&quot;font-size: 10px;&quot;&gt;独享请求拦截器&lt;/font&gt;" style="rounded=0;html=1;shadow=0;labelBackgroundColor=none;strokeWidth=1;fontFamily=Verdana;fontSize=12;align=center;strokeColor=#6c8ebf;fillColor=#dae8fc;" vertex="1" parent="WIyWlLk6GJQsqaUBKTNV-1">
          <mxGeometry x="340" y="110" width="95" height="23" as="geometry" />
        </mxCell>
        <mxCell id="vuq5tWxMH5w9Z1f-DrI8-24" value="" style="edgeStyle=orthogonalEdgeStyle;rounded=0;orthogonalLoop=1;jettySize=auto;html=1;" edge="1" parent="WIyWlLk6GJQsqaUBKTNV-1" source="vuq5tWxMH5w9Z1f-DrI8-16" target="vuq5tWxMH5w9Z1f-DrI8-23">
          <mxGeometry relative="1" as="geometry" />
        </mxCell>
        <mxCell id="vuq5tWxMH5w9Z1f-DrI8-16" value="&lt;font style=&quot;font-size: 10px;&quot;&gt;独享结果拦截器&lt;/font&gt;" style="rounded=0;html=1;shadow=0;labelBackgroundColor=none;strokeWidth=1;fontFamily=Verdana;fontSize=12;align=center;strokeColor=#6c8ebf;fillColor=#dae8fc;" vertex="1" parent="WIyWlLk6GJQsqaUBKTNV-1">
          <mxGeometry x="260" y="220" width="95" height="23" as="geometry" />
        </mxCell>
        <mxCell id="vuq5tWxMH5w9Z1f-DrI8-26" value="" style="edgeStyle=orthogonalEdgeStyle;rounded=0;orthogonalLoop=1;jettySize=auto;html=1;" edge="1" parent="WIyWlLk6GJQsqaUBKTNV-1" source="vuq5tWxMH5w9Z1f-DrI8-19" target="vuq5tWxMH5w9Z1f-DrI8-25">
          <mxGeometry relative="1" as="geometry" />
        </mxCell>
        <mxCell id="vuq5tWxMH5w9Z1f-DrI8-19" value="&lt;font style=&quot;font-size: 10px;&quot;&gt;独享异常拦截器&lt;/font&gt;" style="rounded=0;html=1;shadow=0;labelBackgroundColor=none;strokeWidth=1;fontFamily=Verdana;fontSize=12;align=center;strokeColor=#6c8ebf;fillColor=#dae8fc;" vertex="1" parent="WIyWlLk6GJQsqaUBKTNV-1">
          <mxGeometry x="420" y="220" width="95" height="23" as="geometry" />
        </mxCell>
        <mxCell id="vuq5tWxMH5w9Z1f-DrI8-23" value="&lt;font style=&quot;font-size: 10px;&quot;&gt;共享结果拦截器&lt;/font&gt;" style="rounded=0;html=1;shadow=0;labelBackgroundColor=none;strokeWidth=1;fontFamily=Verdana;fontSize=12;align=center;strokeColor=#6c8ebf;fillColor=#dae8fc;" vertex="1" parent="WIyWlLk6GJQsqaUBKTNV-1">
          <mxGeometry x="260" y="270" width="95" height="23" as="geometry" />
        </mxCell>
        <mxCell id="vuq5tWxMH5w9Z1f-DrI8-25" value="&lt;font style=&quot;font-size: 10px;&quot;&gt;共享异常拦截器&lt;/font&gt;" style="rounded=0;html=1;shadow=0;labelBackgroundColor=none;strokeWidth=1;fontFamily=Verdana;fontSize=12;align=center;strokeColor=#6c8ebf;fillColor=#dae8fc;" vertex="1" parent="WIyWlLk6GJQsqaUBKTNV-1">
          <mxGeometry x="420" y="270" width="95" height="23" as="geometry" />
        </mxCell>
        <mxCell id="vuq5tWxMH5w9Z1f-DrI8-27" style="edgeStyle=orthogonalEdgeStyle;rounded=0;orthogonalLoop=1;jettySize=auto;html=1;exitX=0;exitY=0.5;exitDx=0;exitDy=0;" edge="1" parent="WIyWlLk6GJQsqaUBKTNV-1" source="vuq5tWxMH5w9Z1f-DrI8-7" target="vuq5tWxMH5w9Z1f-DrI8-16">
          <mxGeometry relative="1" as="geometry">
            <mxPoint x="220" y="123" as="sourcePoint" />
            <mxPoint x="263" y="160" as="targetPoint" />
          </mxGeometry>
        </mxCell>
        <mxCell id="vuq5tWxMH5w9Z1f-DrI8-28" value="成功" style="edgeLabel;html=1;align=center;verticalAlign=middle;resizable=0;points=[];fontSize=10;" vertex="1" connectable="0" parent="vuq5tWxMH5w9Z1f-DrI8-27">
          <mxGeometry x="-0.3019" y="-2" relative="1" as="geometry">
            <mxPoint x="7" y="2" as="offset" />
          </mxGeometry>
        </mxCell>
      </root>
    </mxGraphModel>
  </diagram>
</mxfile>
